<?xml version="1.0" standalone="no"?>
<!DOCTYPE svg PUBLIC "-//W3C//DTD SVG 20010904//EN"
 "http://www.w3.org/TR/2001/REC-SVG-20010904/DTD/svg10.dtd">
<svg version="1.0" xmlns="http://www.w3.org/2000/svg"
 width="1200.000000pt" height="1200.000000pt" viewBox="0 0 1200.000000 1200.000000"
 preserveAspectRatio="xMidYMid meet">
<metadata>
Created by potrace 1.14, written by Peter Selinger 2001-2017
</metadata>
<g transform="translate(0.000000,1200.000000) scale(0.100000,-0.100000)"
fill="#000000" stroke="none">
<path d="M5777 9423 c-7 -6 -160 -42 -207 -48 -14 -2 -25 -4 -25 -5 0 -2 -33
-8 -80 -14 -37 -5 -62 -9 -125 -21 -14 -3 -47 -7 -75 -11 -27 -3 -59 -8 -69
-10 -11 -2 -56 -8 -100 -14 -45 -6 -92 -13 -106 -16 -31 -6 -95 -15 -135 -19
-16 -2 -30 -4 -30 -5 0 -1 -13 -3 -30 -5 -16 -2 -50 -7 -75 -10 -52 -8 -87
-13 -150 -20 -80 -10 -135 -17 -155 -22 -11 -2 -42 -6 -70 -8 -27 -2 -63 -6
-80 -9 -32 -7 -106 -16 -165 -21 -19 -2 -35 -4 -35 -5 0 -1 -11 -3 -25 -4 -14
-2 -54 -6 -90 -11 -64 -7 -110 -13 -180 -20 -19 -2 -35 -4 -35 -5 0 -1 -18 -3
-40 -6 -22 -2 -60 -6 -85 -9 -25 -3 -65 -8 -90 -10 -25 -3 -61 -7 -81 -9 -21
-3 -63 -7 -95 -11 -33 -3 -79 -8 -104 -11 -84 -10 -155 -16 -192 -18 -21 0
-38 -3 -38 -6 0 -3 -12 -5 -27 -6 -59 -2 -218 -15 -238 -19 -11 -3 -54 -7 -95
-10 -41 -3 -104 -8 -140 -11 -36 -4 -84 -7 -107 -8 -24 0 -43 -3 -43 -6 0 -3
-24 -6 -53 -7 -28 -1 -68 -4 -87 -6 -19 -3 -57 -8 -85 -12 -75 -10 -94 -13
-102 -18 -9 -5 -129 -19 -150 -18 -29 2 -44 2 -174 -3 -150 -6 -197 -12 -216
-28 -7 -6 -13 -7 -13 -2 0 10 -47 -35 -72 -69 -12 -17 -22 -49 -24 -81 -4 -66
-18 -105 -41 -113 -10 -4 -20 -10 -23 -14 -7 -11 -40 -12 -175 -6 -88 4 -124
11 -180 32 -100 39 -162 54 -193 49 -73 -14 -120 -75 -141 -186 -16 -87 0
-140 70 -229 147 -186 297 -318 469 -412 129 -71 391 -176 478 -193 12 -2 59
-13 105 -24 45 -10 102 -22 127 -25 25 -4 56 -9 70 -11 77 -13 119 -18 157
-18 24 -1 43 -3 43 -6 0 -3 24 -7 53 -8 55 -3 102 -8 102 -11 0 -3 142 -13
375 -26 l84 -4 43 -48 c23 -26 43 -51 43 -55 0 -4 16 -10 35 -14 19 -3 33 -9
31 -13 -2 -3 28 -7 67 -8 96 -3 103 -5 142 -36 19 -15 39 -27 44 -27 6 0 11
-4 11 -10 0 -5 3 -9 8 -8 7 2 92 -18 122 -30 8 -3 18 -6 22 -6 27 -4 11 -28
-67 -102 -139 -131 -466 -449 -677 -656 -104 -104 -194 -188 -199 -188 -5 0
-9 -4 -9 -9 0 -11 5 -6 -420 -421 -177 -173 -404 -395 -504 -493 -1199 -1178
-1215 -1194 -1263 -1257 -85 -113 -155 -266 -169 -374 -4 -25 -10 -43 -14 -41
-12 7 -7 -29 5 -37 7 -5 6 -8 -1 -8 -11 0 -11 -142 0 -220 13 -87 48 -196 87
-274 49 -97 118 -183 274 -340 146 -147 216 -191 379 -242 47 -15 59 -18 116
-30 14 -3 50 -7 81 -8 30 -1 60 -5 66 -9 5 -4 13 -3 17 1 4 4 19 8 34 9 30 3
98 10 157 17 22 3 66 10 98 16 31 6 62 8 67 5 6 -3 10 -3 10 2 0 4 12 9 27 10
16 0 42 3 58 6 60 11 91 16 135 22 25 4 59 9 75 11 40 7 81 13 135 19 25 3 56
8 70 11 14 3 45 7 70 10 25 2 56 7 70 9 14 2 41 7 60 9 19 3 71 10 115 17 44
6 89 12 100 14 11 1 43 6 70 10 87 12 278 38 415 56 47 6 96 12 110 14 24 4
75 10 165 21 22 2 56 6 75 9 76 9 178 21 275 30 33 3 80 8 105 11 115 12 139
15 195 19 58 5 157 14 220 20 39 4 156 15 220 20 28 2 82 7 120 10 39 3 86 8
105 10 19 2 71 7 115 10 44 3 96 8 115 10 19 1 73 6 120 9 47 4 108 9 135 11
28 3 73 8 100 10 28 3 79 7 115 10 85 7 154 14 210 20 25 3 65 7 90 10 66 7
191 24 225 30 17 3 41 8 55 11 14 2 63 6 110 9 388 21 375 19 421 62 40 38 67
99 64 148 -2 33 15 74 39 94 17 14 62 19 181 21 60 2 91 -3 125 -18 64 -27
160 -60 194 -66 16 -3 31 -7 33 -10 3 -2 25 2 50 9 89 27 133 109 127 235 -5
93 -6 100 -13 100 -3 0 -12 14 -20 31 -7 17 -51 69 -98 116 -59 61 -81 89 -74
96 6 6 11 8 11 5 0 -4 16 0 35 8 19 8 35 12 35 9 0 -2 12 0 28 6 15 6 34 12
42 15 39 10 94 25 190 52 130 37 202 54 355 87 129 27 465 85 496 85 10 0 25
-12 33 -28 25 -48 206 -236 248 -258 35 -18 121 -16 161 4 50 25 99 105 178
290 28 64 56 123 64 131 16 16 21 7 50 -94 9 -31 23 -68 31 -83 8 -15 14 -31
14 -37 0 -23 83 -130 185 -239 135 -144 203 -184 323 -190 72 -4 202 24 210
45 2 5 11 9 19 9 8 0 44 29 79 64 67 67 116 157 149 269 17 58 17 58 38 40 12
-10 25 -23 30 -30 18 -29 205 -213 239 -236 33 -22 42 -23 93 -15 32 5 71 16
89 25 31 16 95 78 131 129 11 15 52 60 90 99 65 66 79 88 174 281 57 115 108
216 112 224 5 8 12 22 15 30 3 8 19 43 35 78 16 35 29 66 29 70 0 4 7 20 15
36 9 16 38 84 66 150 27 67 58 139 68 161 11 22 22 51 26 65 4 14 11 30 15 35
6 9 53 122 56 135 0 3 9 23 19 45 10 22 19 42 20 45 3 9 17 44 36 87 11 23 19
46 19 52 0 15 150 52 270 66 14 2 25 4 25 5 0 3 54 15 112 25 24 4 45 11 49
16 3 5 9 7 14 4 5 -3 11 -1 15 5 3 5 14 10 23 10 32 0 137 61 175 102 40 43
77 107 77 133 0 8 5 15 10 15 6 0 10 9 10 20 0 11 5 20 10 20 6 0 9 3 8 8 -1
4 4 20 10 35 7 16 12 33 12 38 0 5 4 9 8 9 14 0 6 153 -10 190 -16 37 -108
144 -190 221 -51 48 -131 97 -171 105 -12 2 -33 6 -47 9 -14 3 -39 8 -55 10
-17 3 -58 16 -90 29 -33 13 -71 25 -85 27 -25 2 -176 -10 -215 -17 -11 -2 -42
-6 -70 -9 -27 -2 -77 -7 -110 -11 -33 -3 -82 -7 -110 -9 -47 -4 -66 -6 -160
-20 -22 -4 -49 -8 -60 -9 -11 -2 -27 -6 -35 -9 -44 -15 -220 -67 -250 -73 -19
-4 -39 -9 -45 -10 -97 -21 -217 -43 -242 -44 -12 0 -34 5 -50 12 -15 6 -30 12
-33 13 -5 1 -62 13 -97 19 -38 8 -173 -44 -173 -66 0 -5 -5 -8 -11 -8 -25 0
-189 -198 -189 -229 0 -11 -70 -114 -84 -123 -22 -15 -32 -6 -65 64 -57 117
-109 188 -211 290 -95 95 -159 137 -233 154 -51 12 -151 13 -165 1 -7 -5 -15
-7 -19 -4 -3 4 -12 2 -20 -4 -7 -6 -13 -9 -13 -5 0 4 -19 -4 -42 -16 -24 -12
-48 -23 -54 -24 -6 -1 -31 16 -55 37 -24 21 -70 48 -101 59 -32 12 -71 32 -87
45 -16 14 -34 25 -40 25 -6 0 -11 4 -11 8 0 30 -223 33 -480 7 -99 -10 -112
-12 -233 -44 -56 -15 -84 -18 -102 -11 -14 5 -25 13 -25 18 0 10 -70 88 -167
188 -82 84 -115 97 -223 91 -143 -9 -191 -40 -400 -263 -70 -74 -111 -111
-175 -159 -49 -36 -54 -40 -89 -87 -16 -21 -32 -35 -37 -32 -5 3 -6 -1 -3 -9
3 -8 -8 -34 -24 -58 -16 -24 -40 -64 -53 -89 -13 -25 -26 -47 -29 -50 -3 -3
-11 -16 -19 -30 -7 -14 -30 -56 -52 -95 -21 -38 -46 -85 -54 -102 -8 -18 -21
-33 -29 -33 -25 0 -66 148 -46 168 1 1 3 5 5 10 1 4 7 21 14 37 15 36 21 126
9 141 -5 7 -8 16 -6 20 3 13 -39 95 -64 126 -13 14 -34 41 -48 59 -41 52 -151
158 -171 164 -11 4 -19 11 -19 16 0 5 -6 9 -12 9 -19 0 -138 52 -138 60 0 4
21 25 46 45 65 54 919 896 987 973 15 18 27 36 27 42 0 5 3 10 8 10 4 0 16 17
27 38 11 20 27 42 35 49 8 7 11 13 6 13 -4 0 -2 10 7 23 20 30 66 161 73 206
3 20 9 50 13 66 8 33 6 236 -3 275 -3 14 -8 39 -12 55 -35 178 -171 385 -373
569 -19 17 -44 41 -57 54 -13 12 -28 22 -34 22 -5 0 -10 4 -10 8 0 25 -214
133 -293 147 -20 4 -40 11 -43 16 -3 5 -14 9 -25 9 -10 0 -19 5 -19 11 0 8 -5
8 -15 -1 -8 -7 -15 -8 -15 -2 0 8 -165 13 -173 5z"/>
</g>
</svg>
